<svg width="30" height="30" viewBox="0 0 30 30" fill="none" xmlns="http://www.w3.org/2000/svg"><rect width="30" height="30" rx="7" fill="#499FDF"></rect><path d="M15.344 25C9.36118 25 5 21.453 5 15.018V15.006C5 9.0743 9.1769 5 15.1474 5C20.8477 5 25 8.52307 25 14.1552V14.1672C25 18.1336 23.231 20.2067 20.9459 20.2067C19.398 20.2067 18.3784 19.2481 17.973 18.0497L17.9361 17.9419H17.8256C17.2482 19.3919 15.9828 20.0989 14.4103 20.0989C11.855 20.0989 10.1351 18.0617 10.1351 15.03V15.018C10.1351 12.0821 11.8919 10.0569 14.4103 10.0569C15.7248 10.0569 16.9165 10.728 17.3833 11.7466H17.4816V10.2846H19.3366V16.1204C19.3366 17.7741 20 18.577 20.9705 18.577C22.2604 18.577 23.145 17.1031 23.145 14.1791V14.1672C23.145 9.52966 19.8403 6.62972 14.9877 6.62972C10.2703 6.62972 6.85504 10.0929 6.85504 15.018V15.03C6.85504 20.4104 10.5037 23.3583 15.3686 23.3583C17.0147 23.3583 18.6978 23.1306 19.4963 22.7831V24.4128C18.4152 24.7843 16.9287 25 15.344 25ZM14.6929 18.4092C16.3759 18.4092 17.457 17.1031 17.457 15.0539V15.0419C17.457 12.9928 16.3759 11.7106 14.7174 11.7106C13.0713 11.7106 12.1007 12.9449 12.1007 15.03V15.0419C12.1007 17.139 13.0835 18.4092 14.6929 18.4092Z" fill="white"></path></svg>