<svg width="30" height="30" viewBox="0 0 30 30" fill="none" xmlns="http://www.w3.org/2000/svg"><rect width="30" height="30" rx="7" fill="#399EB8"></rect><path d="M8.51366 25H21.4863C23.8002 25 25 23.8002 25 21.5185V8.48152C25 6.18907 23.8002 5 21.4863 5H8.51366C6.19979 5 5 6.18907 5 8.48152V21.5185C5 23.8109 6.19979 25 8.51366 25ZM8.58864 9.18854C8.58864 8.47081 9.01714 8.04231 9.74558 8.04231H12.3273C13.0557 8.04231 13.4842 8.47081 13.4842 9.18854V11.7916C13.4842 12.4987 13.0557 12.9379 12.3273 12.9379H9.74558C9.01714 12.9379 8.58864 12.4987 8.58864 11.7916V9.18854ZM9.20996 17.8763C8.80289 17.8763 8.50295 17.5656 8.50295 17.1693C8.50295 16.7943 8.80289 16.4944 9.20996 16.4944H19.8152C20.2116 16.4944 20.5115 16.7943 20.5115 17.1693C20.5115 17.5656 20.2116 17.8763 19.8152 17.8763H9.20996ZM9.20996 21.5399C8.80289 21.5399 8.50295 21.2507 8.50295 20.865C8.50295 20.4687 8.80289 20.158 9.20996 20.158H17.105C17.5013 20.158 17.8013 20.4687 17.8013 20.865C17.8013 21.2507 17.5013 21.5399 17.105 21.5399H9.20996Z" fill="white"></path></svg>