<svg width="30" height="30" viewBox="0 0 30 30" fill="none" xmlns="http://www.w3.org/2000/svg"><rect width="30" height="30" rx="7" fill="#38A5A9"></rect><path fill-rule="evenodd" clip-rule="evenodd" d="M15.6596 24.3102C15.4129 24.4336 15.1661 24.5 14.9953 24.5C14.8339 24.5 14.5872 24.4431 14.3404 24.3102C8.9783 21.3776 7.09918 20.0395 7.09918 16.6324V9.58092C7.09918 8.46104 7.53575 8.04346 8.47531 7.66384C9.50977 7.23676 12.9833 5.98402 14.0083 5.66134C14.3215 5.56643 14.6726 5.5 14.9953 5.5C15.3275 5.5 15.6786 5.56643 15.9918 5.66134C17.0073 6.003 20.4808 7.22727 21.5248 7.66384C22.4643 8.05295 22.9009 8.46104 22.9009 9.58092V16.6324C22.9009 20.0395 21.0977 21.5105 15.6596 24.3102ZM12.4718 18.5679L12.8136 16.4796C12.8136 16.4683 12.8152 16.4534 12.8172 16.4355C12.8278 16.3397 12.8479 16.1576 12.6751 15.9755L11.1713 14.3912C11.0118 14.1992 10.8295 13.8871 11.308 13.8151L13.4953 13.455C13.7231 13.395 13.8086 13.1851 13.8703 13.0334C13.8827 13.003 13.8941 12.975 13.9055 12.951L14.7257 11.2227C14.8169 11.0546 15.0538 10.8194 15.2726 11.2227L16.0245 12.951C16.0928 13.095 16.2295 13.383 16.503 13.455L18.6922 13.8151C19.1706 13.8871 18.9884 14.1992 18.8289 14.3912L17.325 15.9755C17.1527 16.1571 17.1735 16.3387 17.1845 16.4347C17.1866 16.453 17.1883 16.4681 17.1883 16.4796L17.5301 18.5679C17.5301 18.784 17.5301 19 17.1883 19C17.0991 19 16.2629 18.4992 15.7665 18.202C15.5842 18.0929 15.4478 18.0112 15.4111 17.9918C15.2744 17.9198 14.9189 17.819 14.5908 17.9918C14.5541 18.0112 14.4177 18.0929 14.2354 18.202C13.7391 18.4992 12.9028 19 12.8136 19C12.4718 19 12.4718 18.784 12.4718 18.5679Z" fill="white"></path></svg>