<svg width="24" height="24" viewBox="0 0 24 24" fill="none" xmlns="http://www.w3.org/2000/svg"><g clip-path="url(#clip0_1_2)"><path d="M24 12C24 18.6274 18.6274 24 12 24C5.37258 24 0 18.6274 0 12C0 5.37258 5.37258 0 12 0C18.6274 0 24 5.37258 24 12ZM17.6538 7.54599C17.9051 7.13472 17.7755 6.59756 17.3642 6.34623C16.9529 6.09489 16.4157 6.22455 16.1644 6.63583L10.7838 15.4405L7.7477 11.9708C7.43031 11.608 6.87895 11.5713 6.51621 11.8887C6.15348 12.2061 6.11672 12.7574 6.43411 13.1202L10.2523 17.4838C10.4352 17.6928 10.7066 17.8023 10.9833 17.7787C11.26 17.755 11.509 17.6011 11.6538 17.3642L17.6538 7.54599Z" fill="white"></path></g><defs><clipPath id="clip0_1_2"><rect width="24" height="24" fill="white"></rect></clipPath></defs></svg>