<svg xmlns="http://www.w3.org/2000/svg" xmlns:xlink="http://www.w3.org/1999/xlink" viewBox="0 0 512 512" width="512" height="512" fill="none" preserveAspectRatio="xMidYMid meet" style="width: 100%; height: 100%; transform: translate3d(0px, 0px, 0px);"><defs><clipPath id="__lottie_element_2"><rect width="512" height="512" x="0" y="0"></rect></clipPath><linearGradient id="__lottie_element_6" spreadMethod="pad" gradientUnits="userSpaceOnUse" x1="-3.7269999980926514" y1="-0.5" x2="12.77299976348877" y2="-3"><stop offset="0%" stop-color="rgb(242,171,16)" stop-opacity="0"></stop><stop offset="35%" stop-color="rgb(248,185,11)" stop-opacity="0.5"></stop><stop offset="70%" stop-color="rgb(253,198,6)" stop-opacity="1"></stop><stop offset="85%" stop-color="rgb(246,173,5)" stop-opacity="1"></stop><stop offset="100%" stop-color="rgb(239,149,4)" stop-opacity="1"></stop></linearGradient><g id="__lottie_element_7"><g clip-path="url(#__lottie_element_8)" transform="matrix(1,0,0,1,0,0)" opacity="1" style="display: block;"><g clip-path="url(#__lottie_element_12)" transform="matrix(1,0,0,1,0,0)" opacity="1" style="display: block;"><g transform="matrix(20,0,0,20,-3293.887939453125,-3322.934326171875)" opacity="1" style="display: block;"><g opacity="1" transform="matrix(1,0,0,1,177.70899963378906,179.13999938964844)"><path fill="rgb(0,0,0)" fill-opacity="1" d=" M-5.25600004196167,9.809000015258789 C-5.25600004196167,9.809000015258789 -0.5569999814033508,6.929999828338623 -0.5569999814033508,6.929999828338623 C-0.2240000069141388,6.72599983215332 0.1940000057220459,6.72599983215332 0.5270000100135803,6.929999828338623 C0.5270000100135803,6.929999828338623 5.263999938964844,9.831999778747559 5.263999938964844,9.831999778747559 C5.499000072479248,9.97599983215332 5.781000137329102,10.020000457763672 6.048999786376953,9.956000328063965 C6.605999946594238,9.821999549865723 6.948999881744385,9.26200008392334 6.815000057220459,8.704999923706055 C6.815000057220459,8.704999923706055 5.515999794006348,3.311000108718872 5.515999794006348,3.311000108718872 C5.425000190734863,2.930999994277954 5.554999828338623,2.5320000648498535 5.8520002365112305,2.2790000438690186 C5.8520002365112305,2.2790000438690186 10.074999809265137,-1.3209999799728394 10.074999809265137,-1.3209999799728394 C10.28499984741211,-1.5 10.414999961853027,-1.7549999952316284 10.435999870300293,-2.0299999713897705 C10.480999946594238,-2.6010000705718994 10.053999900817871,-3.0999999046325684 9.482999801635742,-3.1449999809265137 C9.482999801635742,-3.1449999809265137 3.944999933242798,-3.5789999961853027 3.944999933242798,-3.5789999961853027 C3.555999994277954,-3.6089999675750732 3.2170000076293945,-3.8550000190734863 3.068000078201294,-4.216000080108643 C3.068000078201294,-4.216000080108643 0.9430000185966492,-9.345000267028809 0.9430000185966492,-9.345000267028809 C0.8379999995231628,-9.598999977111816 0.6359999775886536,-9.800999641418457 0.38199999928474426,-9.906000137329102 C-0.1469999998807907,-10.125 -0.7549999952316284,-9.87399959564209 -0.9739999771118164,-9.345000267028809 C-0.9739999771118164,-9.345000267028809 -3.0980000495910645,-4.216000080108643 -3.0980000495910645,-4.216000080108643 C-3.246999979019165,-3.8550000190734863 -3.5869998931884766,-3.6089999675750732 -3.9760000705718994,-3.5789999961853027 C-3.9760000705718994,-3.5789999961853027 -9.482999801635742,-3.1480000019073486 -9.482999801635742,-3.1480000019073486 C-9.76099967956543,-3.125999927520752 -10.017999649047852,-2.99399995803833 -10.196999549865723,-2.7799999713897705 C-10.5649995803833,-2.3410000801086426 -10.508000373840332,-1.6859999895095825 -10.069000244140625,-1.3179999589920044 C-10.069000244140625,-1.3179999589920044 -8.265999794006348,0.19200000166893005 -8.265999794006348,0.19200000166893005 C-7.363999843597412,0.9480000138282776 -6.173999786376953,1.2690000534057617 -5.013999938964844,1.0679999589920044 C-5.013999938964844,1.0679999589920044 0.6919999718666077,0.07999999821186066 0.6919999718666077,0.07999999821186066 C0.9039999842643738,0.0430000014603138 1.1130000352859497,0.1509999930858612 1.2059999704360962,0.3449999988079071 C1.3209999799728394,0.5839999914169312 1.2200000286102295,0.8709999918937683 0.9810000061988831,0.9860000014305115 C0.9810000061988831,0.9860000014305115 -4.144999980926514,3.447000026702881 -4.144999980926514,3.447000026702881 C-5.105999946594238,3.9089999198913574 -5.813000202178955,4.7729997634887695 -6.076000213623047,5.806000232696533 C-6.076000213623047,5.806000232696533 -6.802999973297119,8.668999671936035 -6.802999973297119,8.668999671936035 C-6.872000217437744,8.9399995803833 -6.828000068664551,9.22700023651123 -6.682000160217285,9.465999603271484 C-6.382999897003174,9.954999923706055 -5.744999885559082,10.107999801635742 -5.25600004196167,9.809000015258789z"></path></g></g></g></g></g><clipPath id="__lottie_element_8"><path d="M0,0 L512,0 L512,512 L0,512z"></path></clipPath><clipPath id="__lottie_element_12"><path d="M0,0 L512,0 L512,512 L0,512z"></path></clipPath><radialGradient id="__lottie_element_21" spreadMethod="pad" gradientUnits="userSpaceOnUse" cx="58.3668098449707" cy="-259.3588562011719" r="544.8927892679365" fx="58.3668098449707" fy="-259.3588562011719"><stop offset="0%" stop-color="rgb(235,235,56)"></stop><stop offset="50%" stop-color="rgb(239,212,46)"></stop><stop offset="100%" stop-color="rgb(243,166,13)"></stop><stop offset="100%" stop-color="rgb(243,166,13)"></stop><stop offset="100%" stop-color="rgb(243,166,13)"></stop></radialGradient><mask id="__lottie_element_7_1" mask-type="alpha"><use xlink:href="#__lottie_element_7"></use></mask></defs><g clip-path="url(#__lottie_element_2)"><g transform="matrix(2,0,0,2,-88.12600708007812,-101.4320068359375)" opacity="1" style="display: block;"><g opacity="0.5" transform="matrix(10,0,0,10,177.70899963378906,179.13999938964844)"><path fill="rgb(0,0,0)" fill-opacity="1" d=" M-5.25600004196167,9.809000015258789 C-5.25600004196167,9.809000015258789 -0.5569999814033508,6.929999828338623 -0.5569999814033508,6.929999828338623 C-0.2240000069141388,6.72599983215332 0.1940000057220459,6.72599983215332 0.5270000100135803,6.929999828338623 C0.5270000100135803,6.929999828338623 5.263999938964844,9.831999778747559 5.263999938964844,9.831999778747559 C5.499000072479248,9.97599983215332 5.781000137329102,10.020000457763672 6.048999786376953,9.956000328063965 C6.605999946594238,9.821999549865723 6.948999881744385,9.26200008392334 6.815000057220459,8.704999923706055 C6.815000057220459,8.704999923706055 5.515999794006348,3.311000108718872 5.515999794006348,3.311000108718872 C5.425000190734863,2.930999994277954 5.554999828338623,2.5320000648498535 5.8520002365112305,2.2790000438690186 C5.8520002365112305,2.2790000438690186 10.074999809265137,-1.3209999799728394 10.074999809265137,-1.3209999799728394 C10.28499984741211,-1.5 10.414999961853027,-1.7549999952316284 10.435999870300293,-2.0299999713897705 C10.480999946594238,-2.6010000705718994 10.053999900817871,-3.0999999046325684 9.482999801635742,-3.1449999809265137 C9.482999801635742,-3.1449999809265137 3.944999933242798,-3.5789999961853027 3.944999933242798,-3.5789999961853027 C3.555999994277954,-3.6089999675750732 3.2170000076293945,-3.8550000190734863 3.068000078201294,-4.216000080108643 C3.068000078201294,-4.216000080108643 0.9430000185966492,-9.345000267028809 0.9430000185966492,-9.345000267028809 C0.8379999995231628,-9.598999977111816 0.6359999775886536,-9.800999641418457 0.38199999928474426,-9.906000137329102 C-0.1469999998807907,-10.125 -0.7549999952316284,-9.87399959564209 -0.9739999771118164,-9.345000267028809 C-0.9739999771118164,-9.345000267028809 -3.0980000495910645,-4.216000080108643 -3.0980000495910645,-4.216000080108643 C-3.246999979019165,-3.8550000190734863 -3.5869998931884766,-3.6089999675750732 -3.9760000705718994,-3.5789999961853027 C-3.9760000705718994,-3.5789999961853027 -9.482999801635742,-3.1480000019073486 -9.482999801635742,-3.1480000019073486 C-9.76099967956543,-3.125999927520752 -10.017999649047852,-2.99399995803833 -10.196999549865723,-2.7799999713897705 C-10.5649995803833,-2.3410000801086426 -10.508000373840332,-1.6859999895095825 -10.069000244140625,-1.3179999589920044 C-10.069000244140625,-1.3179999589920044 -8.265999794006348,0.19200000166893005 -8.265999794006348,0.19200000166893005 C-7.363999843597412,0.9480000138282776 -6.173999786376953,1.2690000534057617 -5.013999938964844,1.0679999589920044 C-5.013999938964844,1.0679999589920044 0.6919999718666077,0.07999999821186066 0.6919999718666077,0.07999999821186066 C0.9039999842643738,0.0430000014603138 1.1130000352859497,0.1509999930858612 1.2059999704360962,0.3449999988079071 C1.3209999799728394,0.5839999914169312 1.2200000286102295,0.8709999918937683 0.9810000061988831,0.9860000014305115 C0.9810000061988831,0.9860000014305115 -4.144999980926514,3.447000026702881 -4.144999980926514,3.447000026702881 C-5.105999946594238,3.9089999198913574 -5.813000202178955,4.7729997634887695 -6.076000213623047,5.806000232696533 C-6.076000213623047,5.806000232696533 -6.802999973297119,8.668999671936035 -6.802999973297119,8.668999671936035 C-6.872000217437744,8.9399995803833 -6.828000068664551,9.22700023651123 -6.682000160217285,9.465999603271484 C-6.382999897003174,9.954999923706055 -5.744999885559082,10.107999801635742 -5.25600004196167,9.809000015258789z"></path></g></g><g mask="url(#__lottie_element_7_1)" style="display: block;"><g transform="matrix(1,0,0,1,256,256)" opacity="1"><g opacity="1" transform="matrix(1,0,0,1,3,4)"><path fill="url(#__lottie_element_21)" fill-opacity="1" d=" M279,-276 C279,-276 279,276 279,276 C279,276 -279,276 -279,276 C-279,276 -279,-276 -279,-276 C-279,-276 279,-276 279,-276z"></path></g></g></g><g transform="matrix(1.1799999475479126,0,0,1.1799999475479126,214,273)" opacity="1" style="display: block;"><g opacity="1" transform="matrix(17.066669464111328,0,0,17.066669464111328,0,0)"><path fill="url(#__lottie_element_6)" fill-opacity="1" d=" M-3.490000009536743,8.310999870300293 C-3.490000009536743,8.310999870300293 1.2079999446868896,5.433000087738037 1.2079999446868896,5.433000087738037 C1.8609999418258667,5.0329999923706055 2.684000015258789,5.0329999923706055 3.3369998931884766,5.433000087738037 C3.3369998931884766,5.433000087738037 8.074000358581543,8.335000038146973 8.074000358581543,8.335000038146973 C8.081999778747559,8.34000015258789 8.093000411987305,8.340999603271484 8.102999687194824,8.33899974822998 C8.123000144958496,8.333999633789062 8.135000228881836,8.314000129699707 8.130000114440918,8.293999671936035 C8.130000114440918,8.293999671936035 6.831999778747559,2.9010000228881836 6.831999778747559,2.9010000228881836 C6.6519999504089355,2.1549999713897705 6.9070000648498535,1.371000051498413 7.491000175476074,0.8730000257492065 C7.491000175476074,0.8730000257492065 11.71399974822998,-2.7269999980926514 11.71399974822998,-2.7269999980926514 C11.722000122070312,-2.7330000400543213 11.72599983215332,-2.743000030517578 11.72700023651123,-2.753000020980835 C11.729000091552734,-2.7739999294281006 11.71399974822998,-2.7909998893737793 11.692999839782715,-2.7929999828338623 C11.692999839782715,-2.7929999828338623 6.15500020980835,-3.2269999980926514 6.15500020980835,-3.2269999980926514 C5.390999794006348,-3.2869999408721924 4.724999904632568,-3.7699999809265137 4.432000160217285,-4.478000164031982 C4.432000160217285,-4.478000164031982 2.306999921798706,-9.607000350952148 2.306999921798706,-9.607000350952148 C2.302999973297119,-9.616000175476074 2.2960000038146973,-9.623000144958496 2.2869999408721924,-9.626999855041504 C2.2679998874664307,-9.635000228881836 2.246000051498413,-9.62600040435791 2.23799991607666,-9.607000350952148 C2.23799991607666,-9.607000350952148 0.11299999803304672,-4.478000164031982 0.11299999803304672,-4.478000164031982 C-0.18000000715255737,-3.7699999809265137 -0.8460000157356262,-3.2869999408721924 -1.6100000143051147,-3.2269999980926514 C-1.6100000143051147,-3.2269999980926514 -7.117000102996826,-2.7950000762939453 -7.117000102996826,-2.7950000762939453 C-7.126999855041504,-2.7939999103546143 -7.13700008392334,-2.7899999618530273 -7.14300012588501,-2.7820000648498535 C-7.156000137329102,-2.7660000324249268 -7.15500020980835,-2.742000102996826 -7.138999938964844,-2.7290000915527344 C-7.138999938964844,-2.7290000915527344 -5.335999965667725,-1.218999981880188 -5.335999965667725,-1.218999981880188 C-5.335999965667725,-1.218999981880188 -4.11299991607666,2 -4.11299991607666,2 C-4.11299991607666,2 -12.72700023651123,2 -12.72700023651123,2 C-12.72700023651123,2 -12.72700023651123,-15 -12.72700023651123,-15 C-12.72700023651123,-15 -9.72700023651123,-0.4519999921321869 -9.72700023651123,-0.4519999921321869 C-9.72700023651123,-0.4519999921321869 -5.978000164031982,-0.4519999921321869 -5.978000164031982,-0.4519999921321869 C-5.978000164031982,-0.4519999921321869 -7.781000137329102,-1.9630000591278076 -7.781000137329102,-1.9630000591278076 C-8.220000267028809,-2.3310000896453857 -8.277999877929688,-2.9860000610351562 -7.909999847412109,-3.424999952316284 C-7.730999946594238,-3.6389999389648438 -7.4730000495910645,-3.7699999809265137 -7.195000171661377,-3.7920000553131104 C-7.195000171661377,-3.7920000553131104 -1.687999963760376,-4.2230000495910645 -1.687999963760376,-4.2230000495910645 C-1.2990000247955322,-4.252999782562256 -0.9599999785423279,-4.5 -0.8109999895095825,-4.861000061035156 C-0.8109999895095825,-4.861000061035156 1.3140000104904175,-9.98900032043457 1.3140000104904175,-9.98900032043457 C1.5329999923706055,-10.517999649047852 2.1410000324249268,-10.770000457763672 2.6700000762939453,-10.550999641418457 C2.9240000247955322,-10.446000099182129 3.125999927520752,-10.243000030517578 3.2309999465942383,-9.98900032043457 C3.2309999465942383,-9.98900032043457 5.355999946594238,-4.861000061035156 5.355999946594238,-4.861000061035156 C5.505000114440918,-4.5 5.843999862670898,-4.252999782562256 6.232999801635742,-4.2230000495910645 C6.232999801635742,-4.2230000495910645 11.770999908447266,-3.7899999618530273 11.770999908447266,-3.7899999618530273 C12.342000007629395,-3.744999885559082 12.769000053405762,-3.246000051498413 12.723999977111816,-2.674999952316284 C12.70300006866455,-2.4000000953674316 12.572999954223633,-2.1449999809265137 12.36299991607666,-1.965999960899353 C12.36299991607666,-1.965999960899353 8.140000343322754,1.6339999437332153 8.140000343322754,1.6339999437332153 C7.8429999351501465,1.8869999647140503 7.7129998207092285,2.2860000133514404 7.803999900817871,2.6659998893737793 C7.803999900817871,2.6659998893737793 9.10200023651123,8.0600004196167 9.10200023651123,8.0600004196167 C9.236000061035156,8.616999626159668 8.894000053405762,9.178000450134277 8.336999893188477,9.312000274658203 C8.069000244140625,9.37600040435791 7.7870001792907715,9.331999778747559 7.552000045776367,9.187999725341797 C7.552000045776367,9.187999725341797 2.815000057220459,6.285999774932861 2.815000057220459,6.285999774932861 C2.4820001125335693,6.081999778747559 2.063999891281128,6.081999778747559 1.7309999465942383,6.285999774932861 C1.7309999465942383,6.285999774932861 -2.9679999351501465,9.163999557495117 -2.9679999351501465,9.163999557495117 C-3.4570000171661377,9.463000297546387 -4.0960001945495605,9.3100004196167 -4.394999980926514,8.821000099182129 C-4.540999889373779,8.581999778747559 -4.585000038146973,8.295000076293945 -4.515999794006348,8.02400016784668 C-4.515999794006348,8.02400016784668 -3.7880001068115234,5.160999774932861 -3.7880001068115234,5.160999774932861 C-3.7880001068115234,5.160999774932861 -12.72700023651123,15 -12.72700023651123,15 C-12.72700023651123,15 -12.72700023651123,3 -12.72700023651123,3 C-12.72700023651123,3 -3.7330000400543213,3 -3.7330000400543213,3 C-3.7330000400543213,3 -2.819000005722046,5.4070000648498535 -2.819000005722046,5.4070000648498535 C-2.819000005722046,5.4070000648498535 -3.5460000038146973,8.270000457763672 -3.5460000038146973,8.270000457763672 C-3.5480000972747803,8.279999732971191 -3.546999931335449,8.289999961853027 -3.5420000553131104,8.298999786376953 C-3.5309998989105225,8.317000389099121 -3.507999897003174,8.321999549865723 -3.490000009536743,8.310999870300293z"></path></g></g></g></svg>