<svg width="30" height="30" viewBox="0 0 30 30" fill="none" xmlns="http://www.w3.org/2000/svg"><rect width="30" height="30" rx="7" fill="#AF52DE"></rect><path fill-rule="evenodd" clip-rule="evenodd" d="M11.5823 22.6586H9.71181C8.1035 22.6586 7.34306 21.8894 7.34306 20.2811V18.4105C7.34306 18.2445 7.29935 18.1221 7.17698 17.9997L5.85712 16.6711C4.72082 15.5348 4.71208 14.4684 5.85712 13.3321L7.17698 11.9948C7.29935 11.8724 7.34306 11.7588 7.34306 11.5927V9.72221C7.34306 8.09642 8.1035 7.34471 9.71181 7.34471H11.5823C11.7571 7.34471 11.8795 7.30101 11.9932 7.17864L13.3217 5.85878C14.4668 4.71374 15.5332 4.71374 16.6695 5.85878L17.9981 7.17864C18.1204 7.30101 18.2428 7.34471 18.4089 7.34471H20.2794C21.8965 7.34471 22.6482 8.1139 22.6482 9.72221V11.5927C22.6482 11.7588 22.7006 11.8724 22.823 11.9948L24.1428 13.3321C25.2791 14.4684 25.2879 15.5348 24.1428 16.6711L22.823 17.9997C22.7006 18.1221 22.6482 18.2445 22.6482 18.4105V20.2811C22.6482 21.8981 21.8877 22.6586 20.2794 22.6586H18.4089C18.2428 22.6586 18.1204 22.6935 17.9981 22.8246L16.6695 24.1445C15.5332 25.2808 14.4668 25.2895 13.3217 24.1445L11.9932 22.8246C11.8708 22.6935 11.7571 22.6586 11.5823 22.6586ZM18.9893 12.4691C18.9564 12.3174 18.8595 12.184 18.7198 12.0982C18.5803 12.0123 18.4095 11.981 18.2449 12.0112C18.0804 12.0414 17.9356 12.1306 17.8423 12.2592L14.0513 17.5015L12.0659 15.6714C11.9459 15.5683 11.7872 15.5122 11.6233 15.5149C11.4593 15.5176 11.3029 15.5788 11.187 15.6857C11.071 15.7926 11.0046 15.9367 11.0017 16.0879C10.9988 16.239 11.0597 16.3853 11.1715 16.4958L13.7028 18.8292C13.769 18.8902 13.849 18.9369 13.9371 18.9659C14.0252 18.995 14.1193 19.0057 14.2124 18.9972C14.3055 18.9887 14.3954 18.9613 14.4757 18.9169C14.556 18.8725 14.6245 18.8123 14.6765 18.7406L18.8954 12.9071C18.9884 12.7784 19.0222 12.6208 18.9893 12.4691Z" fill="white"></path><defs><linearGradient id="paint0_linear_401_1814" x1="2.5" y1="-6" x2="30" y2="35" gradientUnits="userSpaceOnUse"><stop stop-color="#3B82F6"></stop><stop offset="1" stop-color="#1AE94E"></stop></linearGradient></defs></svg>